<mxfile host="app.diagrams.net" modified="2023-03-28T14:25:00.153Z" agent="Mozilla/5.0 (X11; Linux x86_64) AppleWebKit/537.36 (KHTML, like Gecko) Chrome/111.0.0.0 Safari/537.36" version="21.1.1" etag="QP3L5mm-Vak7MdNNoLG_" type="github">
  <diagram name="Page-1" id="SVidGQzaP2YJ-4hznw6y">
    <mxGraphModel>
      <root>
        <mxCell id="0" />
        <mxCell id="1" parent="0" />
      </root>
    </mxGraphModel>
  </diagram>
</mxfile>
